HIERARCHY
ROOT Hips
{
 OFFSET 0.000000 0.000000 0.000000
 CHANNELS 6 Xposition Yposition Zposition Yrotation Xrotation Zrotation
 JOINT Chest
 {
  OFFSET 0.000000 9.585900 0.002600
  CHANNELS 3 Yrotation Xrotation Zrotation
  JOINT Chest2
  {
   OFFSET 0.000000 9.601200 -0.005300
   CHANNELS 3 Yrotation Xrotation Zrotation
   JOINT Chest3
   {
    OFFSET 0.000000 9.561800 0.000000
    CHANNELS 3 Yrotation Xrotation Zrotation
    JOINT Chest4
    {
     OFFSET 0.000000 9.552100 0.000000
     CHANNELS 3 Yrotation Xrotation Zrotation
     JOINT Neck
     {
      OFFSET 0.000000 14.453000 0.000000
      CHANNELS 3 Yrotation Xrotation Zrotation
      JOINT Head
      {
       OFFSET 0.000000 8.936500 -0.011300
       CHANNELS 3 Yrotation Xrotation Zrotation
       End Site
       {
        OFFSET 0.000000 17.073600 -0.006000
       }
      }
     }
     JOINT RightCollar
     {
      OFFSET -2.921100 9.558500 0.000000
      CHANNELS 3 Yrotation Xrotation Zrotation
      JOINT RightShoulder
      {
       OFFSET -13.519700 0.000000 0.000000
       CHANNELS 3 Yrotation Xrotation Zrotation
       JOINT RightElbow
       {
        OFFSET 0.000000 -29.696600 0.000000
        CHANNELS 3 Yrotation Xrotation Zrotation
        JOINT RightWrist
        {
         OFFSET 0.000000 -24.004700 0.000000
         CHANNELS 3 Yrotation Xrotation Zrotation
         End Site
         {
          OFFSET 0.000000 -17.728500 0.000000
         }
        }
       }
      }
     }
     JOINT LeftCollar
     {
      OFFSET 2.921100 9.558500 0.000000
      CHANNELS 3 Yrotation Xrotation Zrotation
      JOINT LeftShoulder
      {
       OFFSET 13.519700 0.000000 0.000000
       CHANNELS 3 Yrotation Xrotation Zrotation
       JOINT LeftElbow
       {
        OFFSET 0.000000 -29.696600 0.000000
        CHANNELS 3 Yrotation Xrotation Zrotation
        JOINT LeftWrist
        {
         OFFSET 0.000000 -24.004700 0.000000
         CHANNELS 3 Yrotation Xrotation Zrotation
         End Site
         {
          OFFSET 0.000000 -17.728500 0.000000
         }
        }
       }
      }
     }
    }
   }
  }
 }
 JOINT RightHip
 {
  OFFSET -7.771700 -0.012900 -0.001300
  CHANNELS 3 Yrotation Xrotation Zrotation
  JOINT RightKnee
  {
   OFFSET 0.000000 -40.869800 0.001200
   CHANNELS 3 Yrotation Xrotation Zrotation
   JOINT RightAnkle
   {
    OFFSET 0.000000 -39.717900 0.002100
    CHANNELS 3 Yrotation Xrotation Zrotation
    JOINT RightToe
    {
     OFFSET 0.000000 -4.965400 11.033500
     CHANNELS 3 Yrotation Xrotation Zrotation
     End Site
     {
      OFFSET 0.000000 -1.423100 5.872300
     }
    }
   }
  }
 }
 JOINT LeftHip
 {
  OFFSET 7.771700 -0.012900 -0.001300
  CHANNELS 3 Yrotation Xrotation Zrotation
  JOINT LeftKnee
  {
   OFFSET 0.000000 -40.869800 0.001200
   CHANNELS 3 Yrotation Xrotation Zrotation
   JOINT LeftAnkle
   {
    OFFSET 0.000000 -39.717900 0.002100
    CHANNELS 3 Yrotation Xrotation Zrotation
    JOINT LeftToe
    {
     OFFSET 0.000000 -4.965400 11.033500
     CHANNELS 3 Yrotation Xrotation Zrotation
     End Site
     {
      OFFSET 0.000000 -1.423100 5.872300
     }
    }
   }
  }
 }
}
MOTION
Frames: 14
Frame Time: 0.008333
-0.456796 48.792196 39.417554 173.379821 -34.458587 -6.350181 5.857139 19.078027 6.172654 0.593946 2.425219 0.616047 1.057343 4.032950 1.097502 4.808512 16.384679 4.960081 -1.709272 16.539426 0.716706 -3.449086 -5.015904 1.920187 -0.283717 -1.021306 -3.901621 7.883897 -3.452059 0.203967 47.392170 -74.961749 -62.344454 -0.050452 -8.418486 0.813379 -7.845743 0.937514 -0.527639 2.554427 -5.637388 -3.960904 -93.250552 -78.743647 105.963391 11.099296 4.298261 -14.552025 3.089161 -45.975761 8.185757 -82.328414 80.942893 -70.630124 -0.880190 -7.793629 -2.525396 0.087624 1.084617 0.067800 -11.782783 -50.833897 14.796456 -161.734632 84.165033 -167.945468 1.053371 -12.791996 5.263295 -0.001632 0.039114 0.009786
-0.461830 48.826702 39.415718 173.397028 -34.416565 -6.363599 5.852429 19.051953 6.191622 0.609177 2.434501 0.628224 1.051483 4.020752 1.100202 4.806610 16.361153 4.955056 -1.733437 16.556504 0.710212 -3.465409 -4.949409 1.939104 -0.310205 -1.008949 -3.910659 7.796453 -3.364452 0.261928 47.436181 -75.011479 -62.358293 -0.034843 -8.401953 0.764860 -7.868790 0.935118 -0.536606 2.593025 -5.681478 -3.880616 -93.132222 -78.783861 105.960151 11.209176 4.205036 -14.560166 3.014964 -46.020889 8.144120 -82.606183 80.919571 -70.873634 -0.733625 -7.824135 -2.610563 0.032289 0.907461 0.070327 -11.937056 -50.831970 14.863767 -161.753200 84.194035 -168.012119 1.096511 -12.780734 5.223381 -0.006140 0.022556 0.006260
-0.469853 48.875074 39.420323 173.396394 -34.342695 -6.380732 5.859933 18.990685 6.221590 0.618661 2.443589 0.643919 1.054858 4.008758 1.099367 4.836890 16.345008 4.987850 -1.785762 16.575920 0.689379 -3.487154 -4.941286 1.927742 -0.360477 -1.000734 -3.942199 7.729109 -3.285551 0.304486 47.661124 -75.041202 -62.558228 -0.034173 -8.358881 0.666470 -7.914321 0.902155 -0.551925 2.599366 -5.707110 -3.826547 -92.996359 -78.826282 105.916581 11.296032 4.100461 -14.567608 3.086155 -46.181018 8.016478 -83.227971 80.914854 -71.405703 -0.592624 -7.776136 -2.596216 -0.050450 0.733919 0.022105 -12.037772 -50.853256 14.919276 -161.935838 84.247863 -168.210237 1.105995 -12.773963 5.186147 -0.008648 0.016275 0.010142
-0.477288 48.940019 39.426733 173.370159 -34.272933 -6.410687 5.909870 18.930216 6.298320 0.643422 2.456416 0.672341 1.033401 3.991428 1.071933 4.861550 16.334080 5.006485 -1.782998 16.609275 0.697549 -3.554433 -4.954436 1.915477 -0.388414 -0.993213 -3.953676 7.650515 -3.204198 0.337713 47.686521 -75.080171 -62.588015 0.014007 -8.373122 0.551665 -7.962067 0.884683 -0.574085 2.602836 -5.741643 -3.770528 -92.900227 -78.830043 105.903547 11.369086 4.001203 -14.603327 3.281972 -46.383172 7.835667 -84.041883 80.961645 -72.054069 -0.474785 -7.731177 -2.511906 -0.169042 0.611171 -0.073758 -12.095034 -50.857364 14.986705 -162.225288 84.316567 -168.493300 1.095442 -12.778079 5.140537 -0.009249 0.009132 0.028712
-0.489147 49.016515 39.434760 173.359351 -34.193338 -6.437031 5.969871 18.877960 6.389814 0.615417 2.433095 0.642768 1.035920 3.989866 1.073823 4.885157 16.329136 5.024905 -1.798580 16.617415 0.688142 -3.572832 -4.893837 1.901218 -0.433720 -0.999494 -3.975525 7.605816 -3.115962 0.384705 47.735398 -75.115416 -62.645083 0.061445 -8.391157 0.422842 -8.001139 0.866777 -0.598308 2.600684 -5.756931 -3.737826 -92.888166 -78.772813 105.983683 11.423566 3.916536 -14.684209 3.558992 -46.598977 7.587789 -84.892406 81.001018 -72.695049 -0.383234 -7.686340 -2.400449 -0.249341 0.544967 -0.179874 -12.193279 -50.863574 15.044958 -162.895682 84.406944 -169.166549 1.066365 -12.752339 5.092297 0.004351 -0.034605 0.017331
-0.494539 49.103484 39.440190 173.373147 -34.140762 -6.514066 6.007333 18.835190 6.483258 0.592281 2.418741 0.633474 1.062705 4.000318 1.087993 4.895288 16.320339 5.040956 -1.809883 16.620548 0.677874 -3.603652 -4.894196 1.895035 -0.462172 -1.001526 -3.988050 7.561587 -3.053442 0.410941 47.819473 -75.136755 -62.737983 0.078346 -8.387816 0.300932 -8.037994 0.850544 -0.626218 2.652467 -5.805392 -3.649972 -92.748051 -78.747014 105.884990 11.453955 3.843232 -14.809708 3.783806 -46.763821 7.418613 -85.642647 80.996777 -73.253865 -0.264720 -7.668538 -2.263762 -0.343660 0.514942 -0.290052 -12.327185 -50.830249 15.145204 -163.609217 84.494414 -169.872308 1.038360 -12.738855 5.027309 -0.001929 -0.053944 0.030868
-0.501324 49.196711 39.436769 173.432939 -34.140544 -6.588506 6.006078 18.852940 6.546887 0.593749 2.415832 0.641694 1.071572 4.002106 1.090788 4.893553 16.307104 5.052815 -1.816333 16.620506 0.668184 -3.631675 -4.895199 1.890525 -0.479854 -0.993112 -3.990887 7.528898 -3.044633 0.405679 47.592610 -75.153488 -62.537031 0.088170 -8.419035 0.209372 -8.072392 0.839210 -0.653269 2.737990 -5.856076 -3.558893 -92.630291 -78.702357 105.777897 11.468831 3.780703 -14.977435 3.917637 -46.829396 7.307782 -86.147667 81.018089 -73.632396 -0.262409 -7.705648 -2.185675 -0.401971 0.523506 -0.277571 -12.429066 -50.741753 15.180125 -164.092975 84.581804 -170.354549 1.021528 -12.726153 4.970017 -0.015035 -0.068138 0.057079
-0.491549 49.284376 39.439904 173.496267 -34.103134 -6.742204 6.012171 18.823739 6.679888 0.625898 2.432421 0.653086 1.033789 3.976736 1.082002 4.897582 16.301985 5.061031 -1.799859 16.624058 0.666037 -3.638471 -4.896014 1.875899 -0.491467 -0.992615 -3.995900 7.481828 -2.971778 0.441993 47.495251 -75.215660 -62.450558 0.092313 -8.480674 0.156430 -8.087962 0.840791 -0.672528 2.827257 -5.897504 -3.484052 -92.557950 -78.613738 105.722390 11.486026 3.730336 -15.195603 3.830558 -46.895075 7.425758 -86.347942 81.011088 -73.775871 -0.277378 -7.772209 -2.144080 -0.401004 0.592451 -0.274411 -12.646314 -50.687426 15.374294 -164.116145 84.639081 -170.372568 1.044345 -12.733241 4.878962 -0.033412 -0.078074 0.095843
-0.481220 49.367256 39.437547 173.560308 -34.089471 -6.861255 5.993045 18.812880 6.770103 0.626132 2.431883 0.653604 1.041051 3.980339 1.085350 4.901769 16.296909 5.068701 -1.793087 16.624434 0.661610 -3.584527 -4.890553 1.840152 -0.506871 -0.996373 -4.002435 7.436297 -2.906502 0.479719 47.418329 -75.302124 -62.377411 0.077343 -8.524125 0.131316 -8.105047 0.839969 -0.685452 2.929540 -5.928246 -3.421611 -92.465813 -78.486857 105.657479 11.509908 3.692964 -15.480933 3.689823 -46.911645 7.564615 -86.400057 80.999416 -73.830857 -0.321713 -7.804415 -2.093380 -0.368720 0.628092 -0.281990 -12.788268 -50.624309 15.502415 -164.385742 84.693750 -170.634076 1.005780 -12.726921 4.852268 -0.017125 -0.115452 0.073169
-0.471096 49.442330 39.431412 173.595928 -34.086320 -6.922637 5.999923 18.828096 6.824921 0.626814 2.429652 0.654712 1.042363 3.976648 1.087451 4.909404 16.287074 5.079233 -1.815817 16.617762 0.653052 -3.552165 -4.881467 1.822474 -0.529282 -0.994923 -4.004825 7.345085 -2.812663 0.527269 47.507467 -75.417756 -62.436706 0.058860 -8.560329 0.128965 -8.134646 0.837258 -0.700339 3.032786 -5.950009 -3.369985 -92.336714 -78.307334 105.585100 11.535777 3.674432 -15.844941 3.606009 -46.913296 7.636145 -86.515047 80.989214 -73.934248 -0.341688 -7.829664 -2.096354 -0.344605 0.640906 -0.264577 -12.846785 -50.562849 15.563830 -164.627886 84.742465 -170.870540 0.960869 -12.727219 4.832963 -0.016998 -0.126364 0.082405
-0.460910 49.515104 39.412941 173.688648 -34.145992 -6.971749 5.937832 18.917929 6.837242 0.628424 2.428307 0.655256 1.044837 3.974693 1.088360 4.920967 16.280428 5.084982 -1.810215 16.617159 0.646339 -3.536200 -4.876768 1.812055 -0.550427 -0.997034 -3.991936 7.303766 -2.782179 0.522033 47.308177 -75.517122 -62.241851 0.039041 -8.584120 0.142739 -8.207089 0.871380 -0.730727 3.176920 -6.006411 -3.319053 -92.118640 -78.066406 105.467706 11.555961 3.680722 -16.305044 3.313139 -46.781226 7.814678 -86.513459 80.930291 -74.027077 -0.419201 -7.967432 -2.210347 -0.215974 0.715027 -0.170314 -12.865684 -50.439410 15.534093 -165.173600 84.793823 -171.415454 0.883795 -12.747848 4.809288 -0.017653 -0.136402 0.089389
-0.452213 49.574756 39.399259 173.726154 -34.156040 -6.953166 5.886955 18.982241 6.822916 0.637307 2.404024 0.636882 1.047326 3.971914 1.087891 4.932692 16.273079 5.085431 -1.800959 16.619474 0.641273 -3.517389 -4.867237 1.802909 -0.566079 -1.005685 -3.995158 7.260008 -2.754208 0.526953 47.142815 -75.602707 -62.079259 0.016870 -8.588897 0.166905 -8.238625 0.873201 -0.741612 3.276037 -6.022385 -3.303443 -91.740471 -77.761402 105.248352 11.539911 3.720841 -16.900563 3.119673 -46.710303 7.904485 -86.514015 80.895284 -74.109565 -0.454671 -8.101384 -2.326225 -0.129416 0.792107 -0.092894 -12.821925 -50.388816 15.467036 -165.167739 84.832271 -171.410852 0.860952 -12.749803 4.806803 -0.012060 -0.157991 0.076476
-0.440414 49.622855 39.391456 173.713860 -34.116593 -6.905797 5.868424 18.974941 6.792929 0.642993 2.395442 0.633035 1.036676 3.989177 1.101677 4.947487 16.246211 5.061079 -1.780872 16.637759 0.641280 -3.507144 -4.867215 1.794024 -0.578780 -1.009715 -3.999001 7.240413 -2.744177 0.525365 47.023135 -75.653581 -61.975434 -0.007918 -8.571794 0.173708 -8.269897 0.877640 -0.751959 3.366853 -6.033751 -3.309654 -91.215065 -77.394003 104.944752 11.433022 3.826153 -17.655581 2.977383 -46.703355 7.967322 -86.520593 80.882811 -74.188866 -0.449764 -8.260398 -2.433761 -0.094368 0.898283 -0.034664 -12.755398 -50.397360 15.439000 -164.839641 84.858794 -171.097353 0.841003 -12.761648 4.818183 -0.007987 -0.167338 0.069213
-0.423680 49.664879 39.383826 173.693392 -34.070627 -6.868811 5.859800 18.964486 6.779760 0.643141 2.386475 0.628580 1.033571 3.990021 1.099702 4.932837 16.252927 5.053042 -1.758610 16.614216 0.623384 -3.482413 -4.851870 1.788105 -0.567320 -1.034864 -4.010599 7.229753 -2.737290 0.520004 47.023138 -75.671938 -61.966045 -0.019077 -8.538975 0.133156 -8.334181 0.898248 -0.791985 3.483902 -6.084835 -3.298069 -90.600850 -76.992850 104.627733 11.217894 4.034184 -18.565053 2.803050 -46.704522 8.063833 -86.394112 80.888541 -74.173116 -0.399629 -8.375997 -2.494110 -0.140829 0.955979 -0.019280 -12.710222 -50.416300 15.443066 -164.416851 84.872483 -170.686797 0.834309 -12.779018 4.826407 0.005440 -0.184001 0.048705
